<?xml version="1.0" standalone="no"?><svg xmlns="http://www.w3.org/2000/svg" viewBox="0 0 1440 320"><path fill="#e0fbfc" fill-opacity="1" d="M0,160L34.3,181.3C68.6,203,137,245,206,245.3C274.3,245,343,203,411,181.3C480,160,549,160,617,149.3C685.7,139,754,117,823,106.7C891.4,96,960,96,1029,106.7C1097.1,117,1166,139,1234,154.7C1302.9,171,1371,181,1406,186.7L1440,192L1440,0L1405.7,0C1371.4,0,1303,0,1234,0C1165.7,0,1097,0,1029,0C960,0,891,0,823,0C754.3,0,686,0,617,0C548.6,0,480,0,411,0C342.9,0,274,0,206,0C137.1,0,69,0,34,0L0,0Z"></path></svg>